<svg width="18" height="18" viewBox="0 0 18 18" fill="none" xmlns="http://www.w3.org/2000/svg">
<path d="M12.3564 11.4978C13.3597 10.2819 13.9934 8.72247 13.9934 7.00441C13.9934 3.14538 10.8515 0 6.9967 0C3.14191 0 0 3.14538 0 7.00441C0 10.8634 3.14191 14.0088 6.9967 14.0088C8.68647 14.0088 10.2706 13.4009 11.4851 12.37L16.9241 17.815C17.0561 17.9471 17.2145 18 17.3729 18C17.5314 18 17.6898 17.9471 17.8218 17.815C18.0594 17.5771 18.0594 17.1542 17.8218 16.9163L12.3564 11.4978ZM6.9703 12.7401C3.80198 12.7401 1.24092 10.1762 1.24092 7.00441C1.24092 3.8326 3.80198 1.26872 6.9703 1.26872C10.1386 1.26872 12.6997 3.8326 12.6997 7.00441C12.6997 10.1762 10.1386 12.7401 6.9703 12.7401Z" fill="#F8F6F8"/>
</svg>
